# xmcd
#
# Track frame offsets: 
#        150
#        25187
#        50080
#        75362
#
# Disc length: 1260 seconds
#
# Revision: 0
# Processed by: cddbd v1.5.2PL0 Copyright (c) Steve Scherf et al.
# Submitted via: ExactAudioCopy v0.99pb5
#
DISCID=2504ea04
DTITLE=Paradise 3001 - Tribital
DYEAR=1992
DGENRE=Techno
TTITLE0=Tribital
TTITLE1=Texas Nebulae
TTITLE2=Trip-A-Nova
TTITLE3=Mars Mellow Mars
EXTD=
EXTT0=
EXTT1=
EXTT2=
EXTT3=
PLAYORDER=
